<svg width="94" height="44" viewBox="0 0 94 44" fill="none" xmlns="http://www.w3.org/2000/svg">
<g clip-path="url(#clip0_3_8)">
<mask id="mask0_3_8" style="mask-type:luminance" maskUnits="userSpaceOnUse" x="0" y="0" width="94" height="44">
<path d="M94 0H0V44H94V0Z" fill="white"/>
</mask>
<g mask="url(#mask0_3_8)">
<path d="M0 44L10.0348 0H94L86.4576 33.0455C84.9015 39.8033 79.687 44 73.1741 44H0Z" fill="white"/>
</g>
<mask id="mask1_3_8" style="mask-type:luminance" maskUnits="userSpaceOnUse" x="2" y="1" width="90" height="42">
<path d="M11.4865 1.84619L2.29541 42.1521H73.1734C79.0096 42.1521 83.3319 38.481 84.6794 32.6276L91.7064 1.84619H11.4865Z" fill="white"/>
</mask>
<g mask="url(#mask1_3_8)">
<path d="M11.4865 1.84619L2.29541 42.1521H73.1734C79.0096 42.1521 83.3319 38.481 84.6794 32.6276L91.7064 1.84619H11.4865Z" fill="#1459EC"/>
</g>
<path d="M49.0077 10.2417H53.3261L51.7312 17.2812C50.7334 21.7086 48.3181 22.6424 45.7927 20.9897L43.2615 23.9806C46.6552 26.8994 54.3887 26.3463 56.1014 18.9103L58.9046 6.64065H49.8236L49.0071 10.2417H49.0077ZM72.1466 14.2995H72.1504C72.9961 13.633 74.7198 6.87919 71.5826 5.00364C69.5422 3.78473 67.5497 6.4316 67.3665 6.5548C67.1774 6.66621 63.9456 7.32088 64.1366 9.71413C64.4299 13.3931 71.1889 14.7785 72.1478 14.2995M42.6075 8.16691C41.1616 7.14132 39.061 6.64327 35.7735 6.64327H15.6295L11.3862 25.2585H16.1274L17.7048 18.3422H23.3267L24.1432 14.7412H18.5272L19.5522 10.2456H35.3766C37.4694 10.2456 38.3941 10.6185 39.2954 11.492C40.031 12.2031 40.4267 13.4554 40.4267 14.3427C40.4267 15.7923 40.1081 17.1305 39.4709 18.3559C38.1681 20.8586 36.0306 21.8436 33.3109 21.8436H31.6254L33.6522 13.1179H32.3643C30.3485 13.1218 28.6015 14.5269 28.1404 16.5118C27.2986 20.1358 26.1078 25.2585 26.1078 25.2585H32.2373C33.8108 25.2585 35.1603 25.1648 36.2896 24.9774C41.6505 24.0848 45.3939 19.0421 45.3939 13.9076C45.3939 11.4691 44.5482 9.52147 42.614 8.16756M67.981 26.193L69.0177 27.2422C69.8051 26.3785 70.7706 24.9564 71.1895 22.8993C71.1202 22.8875 70.7822 22.839 70.7226 22.8272C70.0796 24.4701 68.9154 25.5488 67.9816 26.1917M81.4179 9.83275C81.3078 9.63943 80.6609 6.37065 78.2961 6.56398C76.7265 6.69111 75.5817 8.04108 74.8234 9.60797L79.9007 10.7941L78.7287 15.9286C80.4524 15.9247 82.1515 15.4712 82.9525 14.1016C84.1569 12.0346 81.5416 10.0182 81.4198 9.83275M71.7865 15.9247C71.1299 15.0708 64.4565 13.3243 62.6033 16.4994C61.3988 18.5663 64.0142 20.5827 64.136 20.7682C64.246 20.9596 64.8929 24.2303 67.2577 24.037C70.891 23.7421 72.2599 16.8998 71.7885 15.9293V15.9253H71.7865V15.9247ZM73.3982 16.3015L73.3943 16.3054C72.5506 16.9699 70.8249 23.7237 73.9622 25.5993C76.0026 26.8182 77.997 24.1713 78.1783 24.0481C78.3693 23.9367 81.5992 23.282 81.4101 20.8888C81.1168 17.2098 74.3559 15.8244 73.3969 16.3035" fill="white"/>
<path d="M77.1928 15.8452L77.8474 15.9992L78.89 11.4296L74.3741 10.3726L74.2219 11.0364L78.0831 11.9375L77.1928 15.8452Z" fill="#960A0A"/>
<path d="M74.2188 11.0363L73.3276 14.9429L77.1896 15.8452L78.0807 11.9387L74.2188 11.0363Z" fill="#F00A0A"/>
<path d="M20.8512 30.3634H18.7681L17.249 37.0196H18.7105L19.2376 34.6906H20.0043L20.5391 36.1244C20.8247 36.9292 21.1977 37.1323 21.6723 37.1323C21.9274 37.1323 22.1936 37.095 22.3729 37.0209L22.516 35.8761C22.1858 35.8938 21.9715 35.8118 21.8096 35.4127L21.412 34.471C22.4739 34.1113 23.0917 33.3242 23.1454 32.3065C23.2205 30.929 22.1897 30.3667 20.848 30.3667L20.8519 30.3628L20.8512 30.3634ZM21.627 32.4068C21.5901 33.0903 21.0727 33.5339 20.0593 33.5339H19.5108L19.9551 31.5824H20.5398C21.2521 31.5824 21.6594 31.813 21.6283 32.4048L21.6263 32.4068H21.627Z" fill="white"/>
<path d="M28.8301 30.252C26.3999 30.252 24.8206 32.0921 24.7105 34.1341C24.6101 35.992 25.7452 37.129 27.6736 37.129C30.0947 37.129 31.6734 35.2986 31.7835 33.2566C31.8838 31.3889 30.7487 30.252 28.8301 30.252ZM30.2741 33.3215C30.2028 34.6341 29.2432 35.8262 27.8089 35.8262C26.7683 35.8262 26.1623 35.1971 26.2218 34.0699C26.2931 32.7573 27.2508 31.5652 28.6947 31.5652C29.7178 31.5652 30.3336 32.1943 30.2741 33.3215Z" fill="white"/>
<path d="M35.8959 37.131C37.7861 37.131 38.7379 36.1133 39.1543 34.2843L40.0421 30.3628H38.5806L37.6928 34.2843C37.4532 35.3374 36.9113 35.8924 36.0248 35.8924C35.1383 35.8924 34.8566 35.3374 35.0982 34.2921L35.9956 30.3634H34.5342L33.6367 34.2849C33.2177 36.1061 34.0323 37.1317 35.8953 37.1317" fill="white"/>
<path d="M44.591 30.3634H42.5079L40.9888 37.0196H42.4522L42.9404 34.9016H43.6624C45.6277 34.9016 46.8075 33.876 46.8865 32.3792C46.9635 30.9454 45.9346 30.3628 44.5929 30.3628H44.591V30.3634ZM45.3635 32.4795C45.3246 33.2102 44.7975 33.6827 43.7647 33.6827H43.2163L43.6948 31.5843H44.2795C44.9918 31.5843 45.3972 31.8347 45.3628 32.4808V32.4788L45.3635 32.4795Z" fill="white"/>
<path d="M12.1832 37.1307C14.4477 37.1307 15.8839 35.421 15.9959 33.1745H13.0076L12.766 34.2571H14.3933C14.1867 35.191 13.3682 35.828 12.3529 35.828C11.3376 35.828 10.8163 35.1988 10.8759 34.0717C10.9471 32.7315 11.8601 31.567 13.2504 31.567C13.9167 31.567 14.3972 31.8174 14.7773 32.206L15.7291 31.1784C15.202 30.6056 14.436 30.2544 13.3391 30.2544C10.9996 30.2544 9.47787 32.0677 9.36584 34.1366C9.26548 35.9944 10.3391 37.1314 12.1845 37.1314" fill="white"/>
<path d="M53.0559 34.067H78.7214L78.9299 33.1489H53.2644L53.0559 34.067Z" fill="white"/>
</g>
<defs>
<clipPath id="clip0_3_8">
<rect width="94" height="44" fill="white"/>
</clipPath>
</defs>
</svg>
